<svg width="128" height="128" viewBox="0 0 128 128" fill="none" xmlns="http://www.w3.org/2000/svg" role="img" aria-labelledby="title desc">
  <title id="title">Provider Image</title>
  <desc id="desc">A polished aperture mark with connected provider nodes.</desc>
  <defs>
    <linearGradient id="bg" x1="20" y1="14" x2="108" y2="114" gradientUnits="userSpaceOnUse">
      <stop stop-color="#0F766E"/>
      <stop offset="0.48" stop-color="#2563EB"/>
      <stop offset="1" stop-color="#7C3AED"/>
    </linearGradient>
    <linearGradient id="glass" x1="40" y1="27" x2="92" y2="101" gradientUnits="userSpaceOnUse">
      <stop stop-color="#FFFFFF"/>
      <stop offset="1" stop-color="#DDEAFE"/>
    </linearGradient>
    <filter id="shadow" x="6" y="8" width="116" height="116" filterUnits="userSpaceOnUse" color-interpolation-filters="sRGB">
      <feDropShadow dx="0" dy="10" stdDeviation="10" flood-color="#172554" flood-opacity="0.22"/>
    </filter>
  </defs>
  <rect x="14" y="14" width="100" height="100" rx="24" fill="url(#bg)" filter="url(#shadow)"/>
  <path d="M42 40.5C42 35.806 45.806 32 50.5 32H78.5C83.194 32 87 35.806 87 40.5V87.5C87 92.194 83.194 96 78.5 96H50.5C45.806 96 42 92.194 42 87.5V40.5Z" fill="url(#glass)" fill-opacity="0.96"/>
  <path d="M47.5 82L57.5 70.5C59.197 68.548 62.209 68.457 64.021 70.304L69.5 75.889L74.779 69.616C76.59 67.463 79.935 67.446 81.768 69.581L87 75.677V87.5C87 92.194 83.194 96 78.5 96H50.5C45.806 96 42 92.194 42 87.5V88.227L47.5 82Z" fill="#2563EB" fill-opacity="0.18"/>
  <circle cx="75" cy="51" r="7" fill="#F59E0B"/>
  <path d="M34 58H42" stroke="#DDEAFE" stroke-width="5" stroke-linecap="round"/>
  <path d="M87 58H97" stroke="#DDEAFE" stroke-width="5" stroke-linecap="round"/>
  <path d="M91 75L100 84" stroke="#DDEAFE" stroke-width="5" stroke-linecap="round"/>
  <circle cx="29" cy="58" r="7" fill="#F8FAFC"/>
  <circle cx="103" cy="58" r="7" fill="#F8FAFC"/>
  <circle cx="105" cy="89" r="7" fill="#F8FAFC"/>
  <circle cx="29" cy="58" r="3" fill="#0F766E"/>
  <circle cx="103" cy="58" r="3" fill="#2563EB"/>
  <circle cx="105" cy="89" r="3" fill="#7C3AED"/>
</svg>

